<?xml version="1.0" encoding="utf-8"?>
<!-- Generator: Adobe Illustrator 23.1.1, SVG Export Plug-In . SVG Version: 6.00 Build 0)  -->
<svg version="1.1" id="Layer_1" xmlns="http://www.w3.org/2000/svg" xmlns:xlink="http://www.w3.org/1999/xlink" x="0px" y="0px"
	 viewBox="0 0 383.2 111.2" style="enable-background:new 0 0 383.2 111.2;" xml:space="preserve">
<style type="text/css">
	.st0{fill-rule:evenodd;clip-rule:evenodd;fill:#005EA5;}
	.st1{fill:#414042;}
</style>
<title>Artboard 1</title>
<path class="st0" d="M146,51.5h3.4c1.3,0,2.4-0.8,2.8-2.1c0.3-0.9,0.6-1.8,0.9-2.6c0.5-1.2,0.1-2.6-1-3.3c-1.8-1.3-3.5-2.7-5.3-4
	c-1.6-1.2-2-3.4-0.9-5.1c1-1.4,2.9-1.9,4.5-1.2c2,0.9,4,1.7,6,2.6c1.3,0.6,2.8,0.3,3.6-0.9c0.5-0.6,1.1-1.2,1.7-1.8
	c1-0.9,1.2-2.4,0.5-3.5c-1-1.9-2.1-3.8-3.1-5.6c-1.1-1.6-0.7-3.8,0.9-5c1.6-1.2,3.8-0.8,5,0.7c1.3,1.5,2.8,2.9,4,4.4
	c0.9,1.2,2.4,1.6,3.8,1.1c1.8-0.6,3.7-0.2,5.1,1.1c2.1,1.9,2.3,5.2,0.4,7.3c-0.3,0.4-0.8,0.7-1.2,1c-2.7,1.5-5.1,3.2-7.4,5.3
	c-11.3,11.2-11.3,29.3-0.2,40.6c0.3,0.3,0.7,0.7,1,1c4.7,4.4,10.7,7,17.1,7.3c8.8,0.8,17.5-2.7,23.4-9.3c4-4.3,6.6-9.8,7.2-15.7
	c1.1-10.1-2.2-18.5-9.8-25.2c-1.8-1.5-3.8-2.9-5.8-4.2c-2.5-1.5-3.2-4.7-1.7-7.2c1.3-2.1,3.8-3,6.2-2.2c1.4,0.6,3,0.2,4-1
	c1.3-1.5,2.7-2.9,4-4.4c1.2-1.6,3.4-1.9,5-0.7c1.6,1.1,2,3.4,0.9,5c-1,1.8-2.1,3.7-3.1,5.5c-0.8,1.2-0.6,2.8,0.5,3.7
	c0.6,0.6,1.1,1.3,1.7,1.9c0.8,1,2.2,1.3,3.4,0.8l5.9-2.5c1.7-0.9,3.9-0.3,4.9,1.4c1,1.8,0.5,3.7-1.3,5s-3.4,2.6-5.1,3.9
	c-1,0.7-1.4,2.1-1,3.3c0.3,0.9,0.6,1.8,0.9,2.6c0.3,1.2,1.5,2.1,2.8,2.1c2.2,0,4.4,0.2,6.5,0.1c2-0.2,3.8,1.3,3.9,3.3
	c0.2,2-1.3,3.8-3.3,3.9c-2.1,0.5-4.3,1-6.4,1.5c-1.2,0.2-2,1.2-2.1,2.4c-0.1,1-0.2,2-0.3,3c-0.1,1.3,0.6,2.4,1.8,2.9
	c1.9,0.9,3.9,1.8,5.8,2.7c1.9,0.8,2.7,2.9,2,4.8c-0.7,1.7-2.6,2.6-4.3,2.1c-2.1-0.5-4.2-0.9-6.4-1.2c-1.2-0.2-2.5,0.4-3.1,1.5
	c-0.5,0.8-0.9,1.6-1.4,2.4c-0.7,1.1-0.6,2.5,0.3,3.4c1.4,1.7,2.9,3.4,4.4,5c1.4,1.4,1.4,3.6,0.1,5c-1.3,1.4-3.5,1.6-5,0.4
	c-1.8-1.3-3.6-2.5-5.4-3.7c-1-0.8-2.5-0.8-3.5,0.1c-0.7,0.5-1.4,1-2.1,1.5c-1.2,0.7-1.7,2.2-1.2,3.6c0.6,2,1.2,4,1.9,6
	c0.7,1.9-0.2,4-2.1,4.7c-1.8,0.7-3.8-0.1-4.6-1.8c-1.1-1.9-2.2-3.7-3.3-5.5c-0.6-1.1-2-1.7-3.2-1.3c-0.8,0.2-1.7,0.3-2.5,0.5
	c-1.4,0.2-2.5,1.3-2.5,2.8c-0.3,2.2-0.5,4.3-0.8,6.5c-0.2,2-1.9,3.4-3.9,3.3c-1.6-0.1-2.9-1.3-3.2-2.9c-0.4-2.2-0.6-4.5-0.9-6.8
	c0-1.5-1.2-2.8-2.7-2.9c-0.8-0.1-1.5-0.3-2.3-0.5c-1.3-0.4-2.7,0.2-3.3,1.3c-1.1,1.8-2.2,3.7-3.3,5.5c-0.9,1.8-3.1,2.5-4.9,1.6
	c-1.6-0.8-2.4-2.8-1.8-4.5c0.6-2,1.2-4,1.8-6c0.6-1.4,0-3-1.3-3.8c-0.7-0.5-1.3-1-2-1.5c-1-0.8-2.4-0.9-3.4-0.1
	c-1.8,1.3-3.6,2.5-5.4,3.8c-1.5,1.2-3.7,1.1-5-0.3c-1.3-1.4-1.3-3.6,0-5c1.4-1.7,2.9-3.3,4.3-4.9c1-1,1.1-2.6,0.3-3.7
	c-0.4-0.7-0.9-1.5-1.3-2.2c-0.5-1.1-1.8-1.7-3-1.5c-2.2,0.4-4.4,0.8-6.6,1.2c-1.9,0.5-3.9-0.6-4.4-2.5c-0.6-1.9,0.4-3.8,2.3-4.5
	c2-0.9,3.9-1.8,5.8-2.7c1.2-0.5,1.9-1.8,1.7-3.1c-0.1-0.9-0.2-1.8-0.3-2.8c-0.1-1.1-0.9-2.1-2-2.4c-2.2-0.6-4.3-1.1-6.5-1.5
	c-1.9-0.3-3.2-1.9-3.2-3.8c0.1-2,1.7-3.5,3.7-3.5C143.8,51.4,144.9,51.4,146,51.5L146,51.5z"/>
<path class="st0" d="M185.8,31.1c0-9.2,0-18.4,0-27.6c-0.2-1.7,1-3.3,2.7-3.5c0.3,0,0.6,0,0.8,0c1,0,1.9,0.2,2.8,0.6
	c1,0.6,1.5,1.7,1.4,2.8c0,15,0,29.9,0,44.9c0,3.4-0.1,6.8,0,10.1s-2.3,4.2-4.6,3.9s-3.2-1.4-3.2-3.7
	C185.8,49.4,185.8,40.3,185.8,31.1z"/>
<g>
	<path class="st1" d="M257.4,42.7h23.5v7.1h-15.8V57h14.6v7.1h-14.6v13.7h-7.7V42.7z"/>
	<path class="st1" d="M309.3,51.8c-0.8-0.9-1.7-1.6-2.8-2.1c-1.2-0.5-2.5-0.8-3.8-0.7c-1.4,0-2.7,0.3-4,0.8
		c-1.2,0.6-2.3,1.4-3.2,2.3c-0.9,1-1.7,2.3-2.1,3.6c-1,2.9-1,6.1,0,9c0.5,1.3,1.2,2.5,2.1,3.6c0.9,1,1.9,1.8,3.1,2.3
		c1.2,0.6,2.5,0.8,3.9,0.8c1.5,0,2.9-0.3,4.2-1c1.2-0.7,2.2-1.6,3-2.8l6.4,4.8c-1.4,2-3.4,3.6-5.6,4.6c-2.2,1-4.6,1.5-7,1.5
		c-2.6,0-5.1-0.4-7.6-1.3c-2.2-0.8-4.3-2.1-6-3.7c-1.7-1.6-3-3.6-3.9-5.8c-1.9-4.9-1.9-10.3,0-15.2c0.9-2.2,2.2-4.2,3.9-5.8
		c1.7-1.6,3.8-2.9,6-3.7c2.4-0.9,5-1.3,7.6-1.3c1,0,2.1,0.1,3.1,0.3c1.1,0.2,2.1,0.5,3.2,0.9c1.1,0.4,2.1,0.9,3,1.6
		c1,0.7,1.8,1.5,2.6,2.4L309.3,51.8z"/>
	<path class="st1" d="M320.6,42.7h23.8v7.1h-16.1v6.5h15.2v7.2h-15.2v7.1h17v7.1h-24.7V42.7z"/>
	<path class="st1" d="M383.2,75.3c-2.2,1.2-4.6,2-7.1,2.6c-2.5,0.5-5,0.8-7.6,0.8c-2.6,0-5.1-0.4-7.6-1.3c-2.2-0.8-4.3-2.1-6-3.7
		c-1.7-1.6-3.1-3.6-3.9-5.8c-1.9-4.9-1.9-10.3,0-15.2c0.9-2.2,2.2-4.2,3.9-5.8c1.7-1.6,3.8-2.9,6-3.7c2.4-0.9,5-1.3,7.6-1.3
		c2.6,0,5.2,0.3,7.7,1c2.3,0.7,4.4,1.9,6.2,3.5l-5.4,5.9c-1-1.1-2.2-1.9-3.6-2.5c-1.6-0.6-3.3-0.9-5-0.8c-1.5,0-3.1,0.3-4.5,0.8
		c-1.3,0.5-2.5,1.3-3.5,2.4c-1,1-1.7,2.3-2.2,3.6c-1,2.9-1,6.1,0,9c0.5,1.3,1.2,2.5,2.2,3.6c1,1,2.1,1.8,3.4,2.3
		c1.4,0.6,3,0.9,4.6,0.9c1.5,0,2.9-0.2,4.4-0.6c1-0.3,2-0.7,2.9-1.2v-5.7h-6.3V57h13.7L383.2,75.3z"/>
</g>
<g>
	<path class="st1" d="M24.7,51.1C24,50.2,23,49.5,22,49c-1.2-0.5-2.5-0.8-3.8-0.7c-1.4,0-2.7,0.3-4,0.8c-1.2,0.5-2.3,1.3-3.2,2.3
		c-0.9,1-1.7,2.3-2.1,3.6c-1,2.9-1,6.1,0,9c0.5,1.3,1.2,2.5,2.1,3.6c0.9,1,1.9,1.8,3.1,2.3c1.2,0.6,2.5,0.8,3.9,0.8
		c1.5,0,2.9-0.3,4.2-1c1.2-0.7,2.2-1.6,3-2.8l6.4,4.8c-1.4,2-3.4,3.6-5.6,4.6c-2.2,1-4.6,1.5-7,1.5c-2.6,0-5.1-0.4-7.6-1.3
		c-2.2-0.8-4.3-2.1-6-3.7c-1.7-1.6-3-3.6-3.9-5.8c-1.9-4.9-1.9-10.3,0-15.2c0.9-2.2,2.2-4.2,3.9-5.8c1.7-1.6,3.8-2.9,6-3.7
		c2.4-0.9,5-1.3,7.6-1.3c1,0,2.1,0.1,3.1,0.3c1.1,0.2,2.1,0.5,3.2,0.9c1.1,0.4,2.1,0.9,3,1.6c1,0.7,1.8,1.5,2.6,2.4L24.7,51.1z"/>
	<path class="st1" d="M36,42h23.5v7.1H43.7v7.1h14.6v7.1H43.7V77H36V42z"/>
	<path class="st1" d="M65.4,42h23.8v7.1H73.1v6.5h15.2v7.1H73.1v7.1h17V77H65.4V42z"/>
	<path class="st1" d="M113.5,50.5c-0.7-0.8-1.5-1.4-2.5-1.8c-1-0.4-2-0.6-3.1-0.6c-0.6,0-1.2,0.1-1.7,0.2c-0.6,0.1-1.2,0.3-1.7,0.6
		c-0.5,0.3-0.9,0.6-1.3,1.1c-0.3,0.5-0.5,1.1-0.5,1.7c0,1,0.4,1.9,1.2,2.4c0.9,0.6,1.9,1.1,3,1.4c1.2,0.4,2.5,0.8,3.9,1.2
		c1.4,0.4,2.7,0.9,3.9,1.7c1.2,0.7,2.2,1.7,3,2.9c0.9,1.5,1.3,3.2,1.2,4.9c0,1.8-0.3,3.5-1.1,5.1c-0.7,1.4-1.7,2.7-3,3.6
		c-1.3,1-2.7,1.7-4.3,2.1c-1.7,0.5-3.4,0.7-5.2,0.7c-2.2,0-4.3-0.3-6.3-1c-2-0.7-3.9-1.9-5.4-3.4l5.5-6c0.8,1.1,1.8,1.9,3,2.4
		c1.2,0.6,2.4,0.9,3.7,0.9c0.6,0,1.3-0.1,1.9-0.2c0.6-0.1,1.2-0.4,1.7-0.7c0.5-0.3,0.9-0.7,1.2-1.1c0.3-0.5,0.5-1.1,0.5-1.6
		c0-1-0.4-1.9-1.2-2.5c-0.9-0.7-1.9-1.2-3-1.6c-1.2-0.4-2.6-0.9-4-1.3c-1.4-0.4-2.7-1-4-1.7c-1.2-0.7-2.2-1.7-3-2.9
		c-0.9-1.4-1.3-3-1.2-4.7c0-1.7,0.4-3.5,1.1-5c0.7-1.4,1.8-2.6,3-3.6c1.3-1,2.7-1.7,4.3-2.2c1.6-0.5,3.3-0.7,5-0.7
		c1.9,0,3.9,0.3,5.7,0.8c1.9,0.6,3.6,1.5,5,2.8L113.5,50.5z"/>
</g>
</svg>
